<svg xmlns="http://www.w3.org/2000/svg" width="74" height="74" viewBox="0 0 74 74"><defs><linearGradient id="steel" x2="1" y2="1"><stop stop-color="#5d7d78"/><stop offset=".48" stop-color="#345551"/><stop offset="1" stop-color="#1c3433"/></linearGradient></defs><g><polygon points="72.00,37.00 71.70,41.57 66.07,44.79 64.81,48.52 67.31,54.50 64.77,58.31 58.28,58.28 55.32,60.88 54.50,67.31 50.39,69.34 44.79,66.07 40.93,66.84 37.00,72.00 32.43,71.70 29.21,66.07 25.48,64.81 19.50,67.31 15.69,64.77 15.72,58.28 13.12,55.32 6.69,54.50 4.66,50.39 7.93,44.79 7.16,40.93 2.00,37.00 2.30,32.43 7.93,29.21 9.19,25.48 6.69,19.50 9.23,15.69 15.72,15.72 18.68,13.12 19.50,6.69 23.61,4.66 29.21,7.93 33.07,7.16 37.00,2.00 41.57,2.30 44.79,7.93 48.52,9.19 54.50,6.69 58.31,9.23 58.28,15.72 60.88,18.68 67.31,19.50 69.34,23.61 66.07,29.21 66.84,33.07" fill="#c1b084" stroke="#5f604b" stroke-width="2"/><circle cx="37" cy="37" r="24.5" fill="url(#steel)" stroke="#5f604b" stroke-width="3"/><g stroke="#c1b084" stroke-width="5.95"><path d="M44.7 37L61.15 37"/><path d="M40.85 43.66839560914018L49.075 57.91451350139419"/><path d="M33.15 43.66839560914018L24.925000000000004 57.9145135013942"/><path d="M29.3 37L12.850000000000001 37"/><path d="M33.15 30.331604390859823L24.92499999999999 16.08548649860581"/><path d="M40.85 30.331604390859823L49.075 16.08548649860581"/></g><circle cx="37" cy="37" r="7" fill="#c1b084" stroke="#5f604b" stroke-width="2"/><circle cx="37" cy="37" r="2.45" fill="#182d2e"/></g></svg>